<?xml version="1.0" encoding="iso-8859-1"?>
<!-- Generator: Adobe Illustrator 19.0.0, SVG Export Plug-In . SVG Version: 6.00 Build 0)  -->
<svg xmlns="http://www.w3.org/2000/svg" xmlns:xlink="http://www.w3.org/1999/xlink" version="1.1" id="Layer_1" x="0px" y="0px" viewBox="0 0 512 512" style="enable-background:new 0 0 512 512;" xml:space="preserve" width="512px" height="512px">
<g>
	<g>
		<path d="M220.543,93.643H92.357c-6.284,0-11.38,5.096-11.38,11.38v70.196c0,6.284,5.096,11.38,11.38,11.38h128.187    c6.285,0,11.38-5.096,11.38-11.38v-70.196C231.923,98.739,226.828,93.643,220.543,93.643z M209.164,163.84H103.736v-47.437    h105.427V163.84z" fill="#bbbbbb"/>
	</g>
</g>
<g>
	<g>
		<path d="M419.644,93.643H277.2c-6.284,0-11.38,5.096-11.38,11.38s5.095,11.38,11.38,11.38h142.444    c6.284,0,11.38-5.096,11.38-11.38S425.928,93.643,419.644,93.643z" fill="#bbbbbb"/>
	</g>
</g>
<g>
	<g>
		<path d="M419.644,163.84H277.2c-6.284,0-11.38,5.096-11.38,11.38s5.095,11.38,11.38,11.38h142.444    c6.284,0,11.38-5.096,11.38-11.38S425.928,163.84,419.644,163.84z" fill="#bbbbbb"/>
	</g>
</g>
<g>
	<g>
		<path d="M419.643,234.033H92.357c-6.284,0-11.38,5.095-11.38,11.38c0,6.285,5.096,11.38,11.38,11.38h327.286    c6.284,0,11.38-5.096,11.38-11.38C431.023,239.128,425.927,234.033,419.643,234.033z" fill="#bbbbbb"/>
	</g>
</g>
<g>
	<g>
		<path d="M500.62,23.447h-24.322H35.701H11.38C5.095,23.447,0,28.543,0,34.827s5.095,11.38,11.38,11.38h12.942v252.332    c0,15.687,12.762,28.449,28.449,28.449h191.85v49.885l-92.253,92.253c-4.444,4.444-4.444,11.649,0,16.094    c2.222,2.221,5.134,3.333,8.047,3.333s5.824-1.112,8.047-3.333l76.16-76.16v68.113c0,6.284,5.096,11.38,11.38,11.38    s11.38-5.096,11.38-11.38v-68.117l76.165,76.165c2.222,2.221,5.134,3.333,8.047,3.333s5.824-1.112,8.047-3.333    c4.444-4.444,4.444-11.649,0-16.094l-92.258-92.258v-49.88h191.85c15.687,0,28.449-12.762,28.449-28.449V46.206h12.942    c6.284,0,11.38-5.096,11.38-11.38C512,28.543,506.904,23.447,500.62,23.447z M464.919,298.54c0,3.137-2.552,5.69-5.69,5.69H52.771    c-3.137,0-5.69-2.552-5.69-5.69V46.206h417.838V298.54z" fill="#bbbbbb"/>
	</g>
</g>
<g>
</g>
<g>
</g>
<g>
</g>
<g>
</g>
<g>
</g>
<g>
</g>
<g>
</g>
<g>
</g>
<g>
</g>
<g>
</g>
<g>
</g>
<g>
</g>
<g>
</g>
<g>
</g>
<g>
</g>
</svg>
